# xmcd
#
# Track frame offsets:
#	150
#	16465
#	28595
#	41945
#	55390
#	71565
#	85510
#	100757
#	118337
#	131390
#
# Disc length: 1946 seconds
# Revision: 1
# Processed by: cddbd v1.5.2PL0 Copyright (c) Steve Scherf et al.
# Submitted via: dBpowerAMP V12.0
#
DISCID=8407980a
DTITLE=Louise Mandrell - Lassoes and Spurs
DYEAR=1992
DGENRE=Country
TTITLE0=Too Hot to Sleep
TTITLE1=Runaway Heart
TTITLE2=I'm Not Through Loving You Yet
TTITLE3=Goodbye Heartache
TTITLE4=This Bed's Not Big Enough
TTITLE5=Maybe My Baby
TTITLE6=I Wanna Say Yes
TTITLE7=Some Girls Have All the Luck
TTITLE8=Loving Proof
TTITLE9=Surprise Me
EXTD=
EXTT0=
EXTT1=
EXTT2=
EXTT3=
EXTT4=
EXTT5=
EXTT6=
EXTT7=
EXTT8=
EXTT9=
PLAYORDER=
